<svg xmlns="http://www.w3.org/2000/svg" xmlns:xlink="http://www.w3.org/1999/xlink" width="2000" zoomAndPan="magnify" viewBox="0 0 1500 1499.999933" height="2000" preserveAspectRatio="xMidYMid meet" version="1.0"><defs><clipPath id="8307677532"><path d="M 183.191406 679 L 368.789062 679 L 368.789062 1040 L 183.191406 1040 Z M 183.191406 679 " clip-rule="nonzero"/></clipPath><clipPath id="a361a2cd8c"><path d="M 183.917969 1039.648438 C 285.90625 1039.648438 368.597656 956.957031 368.597656 854.96875 L 368.597656 679.5 C 266.609375 679.5 183.917969 762.191406 183.917969 864.183594 Z M 183.917969 1039.648438 " clip-rule="nonzero"/></clipPath><clipPath id="4b5ec72b45"><path d="M 0.839844 0.359375 L 185.640625 0.359375 L 185.640625 360.839844 L 0.839844 360.839844 Z M 0.839844 0.359375 " clip-rule="nonzero"/></clipPath><clipPath id="50a0d65190"><path d="M 0.917969 360.648438 C 102.90625 360.648438 185.597656 277.957031 185.597656 175.96875 L 185.597656 0.5 C 83.609375 0.5 0.917969 83.191406 0.917969 185.183594 Z M 0.917969 360.648438 " clip-rule="nonzero"/></clipPath><clipPath id="90e0ae52c8"><rect x="0" width="186" y="0" height="361"/></clipPath><clipPath id="ad69b52ea8"><path d="M 12.441406 103.46875 L 368.789062 103.46875 L 368.789062 660 L 12.441406 660 Z M 12.441406 103.46875 " clip-rule="nonzero"/></clipPath><clipPath id="980a79b3a7"><path d="M 290.417969 659.261719 L 368.597656 659.261719 L 368.597656 103.652344 L 290.417969 103.652344 C 137 103.652344 12.625 228.027344 12.625 381.445312 C 12.625 534.863281 137 659.261719 290.417969 659.261719 " clip-rule="nonzero"/></clipPath><clipPath id="6be10a94d8"><path d="M 0.480469 0.601562 L 356.640625 0.601562 L 356.640625 556.441406 L 0.480469 556.441406 Z M 0.480469 0.601562 " clip-rule="nonzero"/></clipPath><clipPath id="6c841e9ac9"><path d="M 278.417969 556.261719 L 356.597656 556.261719 L 356.597656 0.652344 L 278.417969 0.652344 C 125 0.652344 0.625 125.027344 0.625 278.445312 C 0.625 431.863281 125 556.261719 278.417969 556.261719 " clip-rule="nonzero"/></clipPath><clipPath id="0d22ed060c"><rect x="0" width="357" y="0" height="557"/></clipPath><clipPath id="82cb778955"><path d="M 459.339844 53.304688 L 1023 53.304688 L 1023 476 L 459.339844 476 Z M 459.339844 53.304688 " clip-rule="nonzero"/></clipPath><clipPath id="c4dcbe6726"><path d="M 675.277344 120.367188 C 691.027344 93.085938 712.980469 79.457031 741.082031 79.457031 C 769.183594 79.457031 791.136719 93.085938 806.910156 120.367188 C 822.6875 147.648438 830.550781 195.773438 830.550781 264.789062 C 830.550781 333.800781 822.664062 381.949219 806.910156 409.207031 C 791.160156 436.46875 769.207031 450.097656 741.082031 450.097656 C 712.953125 450.097656 691.027344 436.46875 675.277344 409.207031 C 659.5 381.925781 651.636719 333.800781 651.636719 264.789062 C 651.636719 195.773438 659.5 147.625 675.277344 120.367188 Z M 540.84375 426.671875 C 597.867188 464.667969 675.203125 475.691406 741.105469 475.691406 C 833.132812 475.691406 902.992188 456.320312 950.703125 417.53125 C 998.417969 378.742188 1022.277344 327.867188 1022.277344 264.8125 C 1022.277344 192.011719 984.1875 123.671875 918.089844 90.746094 C 896.742188 80.105469 874.914062 71.664062 851.632812 66.066406 C 817.960938 57.988281 781.125 53.933594 741.082031 53.933594 C 649.054688 53.933594 579.171875 73.328125 531.484375 112.09375 C 483.792969 150.859375 459.910156 201.730469 459.910156 264.789062 C 459.910156 302.296875 466.929688 334.429688 480.996094 361.277344 C 495.46875 388.921875 516.261719 410.292969 540.816406 426.648438 " clip-rule="nonzero"/></clipPath><clipPath id="a92fd06816"><path d="M 0.839844 0.921875 L 563.398438 0.921875 L 563.398438 422.839844 L 0.839844 422.839844 Z M 0.839844 0.921875 " clip-rule="nonzero"/></clipPath><clipPath id="f5a6931b19"><path d="M 216.277344 67.367188 C 232.027344 40.085938 253.980469 26.457031 282.082031 26.457031 C 310.183594 26.457031 332.136719 40.085938 347.910156 67.367188 C 363.6875 94.648438 371.550781 142.773438 371.550781 211.789062 C 371.550781 280.800781 363.664062 328.949219 347.910156 356.207031 C 332.160156 383.46875 310.207031 397.097656 282.082031 397.097656 C 253.953125 397.097656 232.027344 383.46875 216.277344 356.207031 C 200.5 328.925781 192.636719 280.800781 192.636719 211.789062 C 192.636719 142.773438 200.5 94.625 216.277344 67.367188 Z M 81.84375 373.671875 C 138.867188 411.667969 216.203125 422.691406 282.105469 422.691406 C 374.132812 422.691406 443.992188 403.320312 491.703125 364.53125 C 539.417969 325.742188 563.277344 274.867188 563.277344 211.8125 C 563.277344 139.011719 525.1875 70.671875 459.089844 37.746094 C 437.742188 27.105469 415.914062 18.664062 392.632812 13.066406 C 358.960938 4.988281 322.125 0.933594 282.082031 0.933594 C 190.054688 0.933594 120.171875 20.328125 72.484375 59.09375 C 24.792969 97.859375 0.910156 148.730469 0.910156 211.789062 C 0.910156 249.296875 7.929688 281.429688 21.996094 308.277344 C 36.46875 335.921875 57.261719 357.292969 81.816406 373.648438 " clip-rule="nonzero"/></clipPath><clipPath id="e79207e4b2"><rect x="0" width="564" y="0" height="423"/></clipPath><clipPath id="038504b350"><path d="M 428.011719 463 L 1073.867188 463 L 1073.867188 986 L 428.011719 986 Z M 428.011719 463 " clip-rule="nonzero"/></clipPath><clipPath id="77c9f2d720"><path d="M 1019.089844 588.800781 C 982.859375 551.746094 932.828125 533.199219 868.90625 533.199219 L 626.066406 533.199219 C 587.734375 533.199219 561.082031 529.363281 546.199219 521.691406 C 534.402344 515.613281 524.96875 505.503906 524.027344 491.683594 C 523.257812 480.492188 528.683594 472.144531 534.957031 463.703125 C 493.949219 460.226562 449.828125 483.578125 436.417969 523.140625 C 418.035156 577.292969 433.667969 637.238281 479.113281 672.503906 C 513.175781 698.917969 562.167969 712.136719 626.066406 712.136719 L 868.90625 712.136719 C 971.160156 712.136719 1022.277344 739.804688 1022.277344 795.214844 C 1022.277344 838.683594 998.203125 875.085938 950.054688 904.488281 C 896.527344 937.175781 833.324219 952.398438 771.164062 956.039062 C 704.320312 959.945312 642.902344 949.550781 580.933594 925.257812 C 606.019531 906.683594 621.675781 875.832031 621.410156 844.59375 C 621.144531 813.355469 604.816406 782.625 578.882812 765.28125 C 552.953125 747.933594 518.046875 744.628906 489.460938 757.199219 C 470.140625 765.691406 454.097656 780.839844 443.074219 798.832031 C 432.460938 816.175781 426.285156 836.707031 428.480469 856.921875 C 430.988281 880.269531 444.496094 901.472656 462.132812 917.035156 C 512.980469 961.902344 593.671875 975.191406 658.847656 982.332031 C 732.277344 990.390625 804.039062 984.480469 875.996094 969.449219 C 935.289062 957.078125 994.992188 929.140625 1033.058594 880.367188 C 1062.464844 842.6875 1073.4375 790.921875 1073.4375 744.101562 C 1073.4375 677.644531 1055.324219 625.875 1019.117188 588.824219 " clip-rule="nonzero"/></clipPath><clipPath id="66cffb0137"><path d="M 0.0117188 0 L 645.519531 0 L 645.519531 523 L 0.0117188 523 Z M 0.0117188 0 " clip-rule="nonzero"/></clipPath><clipPath id="9a0bb530da"><path d="M 591.089844 125.800781 C 554.859375 88.746094 504.828125 70.199219 440.90625 70.199219 L 198.066406 70.199219 C 159.734375 70.199219 133.082031 66.363281 118.199219 58.691406 C 106.402344 52.613281 96.96875 42.503906 96.027344 28.683594 C 95.257812 17.492188 100.683594 9.144531 106.957031 0.703125 C 65.949219 -2.773438 21.828125 20.578125 8.417969 60.140625 C -9.964844 114.292969 5.667969 174.238281 51.113281 209.503906 C 85.175781 235.917969 134.167969 249.136719 198.066406 249.136719 L 440.90625 249.136719 C 543.160156 249.136719 594.277344 276.804688 594.277344 332.214844 C 594.277344 375.683594 570.203125 412.085938 522.054688 441.488281 C 468.527344 474.175781 405.324219 489.398438 343.164062 493.039062 C 276.320312 496.945312 214.902344 486.550781 152.933594 462.257812 C 178.019531 443.683594 193.675781 412.832031 193.410156 381.59375 C 193.144531 350.355469 176.816406 319.625 150.882812 302.28125 C 124.953125 284.933594 90.046875 281.628906 61.460938 294.199219 C 42.140625 302.691406 26.097656 317.839844 15.074219 335.832031 C 4.460938 353.175781 -1.714844 373.707031 0.480469 393.921875 C 2.988281 417.269531 16.496094 438.472656 34.132812 454.035156 C 84.980469 498.902344 165.671875 512.191406 230.847656 519.332031 C 304.277344 527.390625 376.039062 521.480469 447.996094 506.449219 C 507.289062 494.078125 566.992188 466.140625 605.058594 417.367188 C 634.464844 379.6875 645.4375 327.921875 645.4375 281.101562 C 645.4375 214.644531 627.324219 162.875 591.117188 125.824219 " clip-rule="nonzero"/></clipPath><clipPath id="a6df27a722"><rect x="0" width="646" y="0" height="523"/></clipPath><clipPath id="7b6d52b25f"><path d="M 1028.078125 12.335938 L 1224 12.335938 L 1224 207.539062 L 1028.078125 207.539062 Z M 1028.078125 12.335938 " clip-rule="nonzero"/></clipPath><clipPath id="fcb3af3bd7"><path d="M 1223.382812 109.753906 C 1223.382812 163.546875 1179.769531 207.160156 1125.976562 207.160156 C 1072.183594 207.160156 1028.570312 163.546875 1028.570312 109.753906 C 1028.570312 55.960938 1072.160156 12.347656 1125.976562 12.347656 C 1179.792969 12.347656 1223.382812 55.960938 1223.382812 109.753906 " clip-rule="nonzero"/></clipPath><clipPath id="a4ceda95b5"><path d="M 0.398438 0.335938 L 195.519531 0.335938 L 195.519531 195.28125 L 0.398438 195.28125 Z M 0.398438 0.335938 " clip-rule="nonzero"/></clipPath><clipPath id="92c39f20e2"><path d="M 195.382812 97.753906 C 195.382812 151.546875 151.769531 195.160156 97.976562 195.160156 C 44.183594 195.160156 0.570312 151.546875 0.570312 97.753906 C 0.570312 43.960938 44.160156 0.347656 97.976562 0.347656 C 151.792969 0.347656 195.382812 43.960938 195.382812 97.753906 " clip-rule="nonzero"/></clipPath><clipPath id="af4f2023dd"><rect x="0" width="196" y="0" height="196"/></clipPath><clipPath id="d19a8f10b5"><rect x="0" width="1238" y="0" height="1053"/></clipPath></defs><g transform="matrix(1, 0, 0, 1, 132, 224)"><g clip-path="url(#d19a8f10b5)"><g clip-path="url(#8307677532)"><g clip-path="url(#a361a2cd8c)"><g transform="matrix(1, 0, 0, 1, 183, 679)"><g clip-path="url(#90e0ae52c8)"><g clip-path="url(#4b5ec72b45)"><g clip-path="url(#50a0d65190)"><rect x="-861" width="2592" fill="#1a1a1a" y="-1448.999976" height="2591.999885" fill-opacity="1"/></g></g></g></g></g></g><g clip-path="url(#ad69b52ea8)"><g clip-path="url(#980a79b3a7)"><g transform="matrix(1, 0, 0, 1, 12, 103)"><g clip-path="url(#0d22ed060c)"><g clip-path="url(#6be10a94d8)"><g clip-path="url(#6c841e9ac9)"><rect x="-690" width="2592" fill="#1a1a1a" y="-872.999976" height="2591.999885" fill-opacity="1"/></g></g></g></g></g></g><g clip-path="url(#82cb778955)"><g clip-path="url(#c4dcbe6726)"><g transform="matrix(1, 0, 0, 1, 459, 53)"><g clip-path="url(#e79207e4b2)"><g clip-path="url(#a92fd06816)"><g clip-path="url(#f5a6931b19)"><rect x="-1137" width="2592" fill="#1a1a1a" y="-822.999976" height="2591.999885" fill-opacity="1"/></g></g></g></g></g></g><g clip-path="url(#038504b350)"><g clip-path="url(#77c9f2d720)"><g transform="matrix(1, 0, 0, 1, 428, 463)"><g clip-path="url(#a6df27a722)"><g clip-path="url(#66cffb0137)"><g clip-path="url(#9a0bb530da)"><rect x="-1106" width="2592" fill="#1a1a1a" y="-1232.999976" height="2591.999885" fill-opacity="1"/></g></g></g></g></g></g><g clip-path="url(#7b6d52b25f)"><g clip-path="url(#fcb3af3bd7)"><g transform="matrix(1, 0, 0, 1, 1028, 12)"><g clip-path="url(#af4f2023dd)"><g clip-path="url(#a4ceda95b5)"><g clip-path="url(#92c39f20e2)"><rect x="-1706" width="2592" fill="#1a1a1a" y="-781.999976" height="2591.999885" fill-opacity="1"/></g></g></g></g></g></g></g></g></svg>