<svg xmlns="http://www.w3.org/2000/svg" xmlns:xlink="http://www.w3.org/1999/xlink" width="1500" zoomAndPan="magnify" viewBox="0 550 1500 400" height="400" preserveAspectRatio="xMidYMid meet" version="1.0"><defs><g/><clipPath id="efdae15cd7"><rect x="0" width="1370" y="0" height="200"/></clipPath><clipPath id="a7079f0082"><rect x="0" width="1327" y="0" height="162"/></clipPath></defs><g transform="matrix(1, 0, 0, 1, 78, 592)"><g clip-path="url(#efdae15cd7)"><g fill="#1a1a1a" fill-opacity="1"><g transform="translate(1.046877, 149.503226)"><g><path d="M 84.71875 -67.546875 C 84.71875 -61.773438 83.390625 -56.5 80.734375 -51.71875 C 78.085938 -46.945312 74.019531 -43.09375 68.53125 -40.15625 C 63.050781 -37.226562 56.242188 -35.765625 48.109375 -35.765625 L 33.0625 -35.765625 L 33.0625 0 L 8.796875 0 L 8.796875 -99.625 L 48.109375 -99.625 C 56.054688 -99.625 62.769531 -98.25 68.25 -95.5 C 73.738281 -92.757812 77.851562 -88.972656 80.59375 -84.140625 C 83.34375 -79.316406 84.71875 -73.785156 84.71875 -67.546875 Z M 46.265625 -55.0625 C 50.898438 -55.0625 54.351562 -56.148438 56.625 -58.328125 C 58.894531 -60.503906 60.03125 -63.578125 60.03125 -67.546875 C 60.03125 -71.515625 58.894531 -74.585938 56.625 -76.765625 C 54.351562 -78.941406 50.898438 -80.03125 46.265625 -80.03125 L 33.0625 -80.03125 L 33.0625 -55.0625 Z M 46.265625 -55.0625 "/></g></g></g><g fill="#1a1a1a" fill-opacity="1"><g transform="translate(89.592565, 149.503226)"><g><path d="M 59.59375 0 L 38.875 -37.609375 L 33.0625 -37.609375 L 33.0625 0 L 8.796875 0 L 8.796875 -99.625 L 49.53125 -99.625 C 57.375 -99.625 64.0625 -98.25 69.59375 -95.5 C 75.132812 -92.757812 79.273438 -89 82.015625 -84.21875 C 84.765625 -79.445312 86.140625 -74.125 86.140625 -68.25 C 86.140625 -61.632812 84.269531 -55.722656 80.53125 -50.515625 C 76.789062 -45.316406 71.28125 -41.628906 64 -39.453125 L 86.984375 0 Z M 33.0625 -54.78125 L 48.109375 -54.78125 C 52.554688 -54.78125 55.890625 -55.863281 58.109375 -58.03125 C 60.335938 -60.207031 61.453125 -63.285156 61.453125 -67.265625 C 61.453125 -71.046875 60.335938 -74.023438 58.109375 -76.203125 C 55.890625 -78.378906 52.554688 -79.46875 48.109375 -79.46875 L 33.0625 -79.46875 Z M 33.0625 -54.78125 "/></g></g></g><g fill="#1a1a1a" fill-opacity="1"><g transform="translate(182.111448, 149.503226)"><g><path d="M 70.8125 -17.59375 L 33.625 -17.59375 L 27.671875 0 L 2.265625 0 L 38.3125 -99.625 L 66.40625 -99.625 L 102.453125 0 L 76.765625 0 Z M 64.5625 -36.328125 L 52.21875 -72.796875 L 40.015625 -36.328125 Z M 64.5625 -36.328125 "/></g></g></g><g fill="#1a1a1a" fill-opacity="1"><g transform="translate(286.691847, 149.503226)"><g><path d="M 94.21875 -99.625 L 59.75 -32.921875 L 59.75 0 L 35.484375 0 L 35.484375 -32.921875 L 1 -99.625 L 28.515625 -99.625 L 47.828125 -57.890625 L 66.984375 -99.625 Z M 94.21875 -99.625 "/></g></g></g><g fill="#1a1a1a" fill-opacity="1"><g transform="translate(381.906837, 149.503226)"><g><path d="M 70.8125 -17.59375 L 33.625 -17.59375 L 27.671875 0 L 2.265625 0 L 38.3125 -99.625 L 66.40625 -99.625 L 102.453125 0 L 76.765625 0 Z M 64.5625 -36.328125 L 52.21875 -72.796875 L 40.015625 -36.328125 Z M 64.5625 -36.328125 "/></g></g></g><g fill="#1a1a1a" fill-opacity="1"><g transform="translate(486.487235, 149.503226)"><g><path d="M 44.84375 1 C 37.5625 1 31.035156 -0.179688 25.265625 -2.546875 C 19.492188 -4.921875 14.878906 -8.425781 11.421875 -13.0625 C 7.972656 -17.695312 6.148438 -23.273438 5.953125 -29.796875 L 31.78125 -29.796875 C 32.164062 -26.109375 33.441406 -23.296875 35.609375 -21.359375 C 37.785156 -19.421875 40.628906 -18.453125 44.140625 -18.453125 C 47.734375 -18.453125 50.566406 -19.28125 52.640625 -20.9375 C 54.722656 -22.59375 55.765625 -24.882812 55.765625 -27.8125 C 55.765625 -30.269531 54.9375 -32.300781 53.28125 -33.90625 C 51.625 -35.519531 49.585938 -36.847656 47.171875 -37.890625 C 44.765625 -38.929688 41.335938 -40.113281 36.890625 -41.4375 C 30.460938 -43.425781 25.210938 -45.410156 21.140625 -47.390625 C 17.078125 -49.378906 13.578125 -52.3125 10.640625 -56.1875 C 7.710938 -60.070312 6.25 -65.132812 6.25 -71.375 C 6.25 -80.644531 9.601562 -87.90625 16.3125 -93.15625 C 23.03125 -98.40625 31.785156 -101.03125 42.578125 -101.03125 C 53.546875 -101.03125 62.390625 -98.40625 69.109375 -93.15625 C 75.828125 -87.90625 79.421875 -80.597656 79.890625 -71.234375 L 53.640625 -71.234375 C 53.453125 -74.453125 52.269531 -76.984375 50.09375 -78.828125 C 47.914062 -80.671875 45.125 -81.59375 41.71875 -81.59375 C 38.789062 -81.59375 36.425781 -80.8125 34.625 -79.25 C 32.820312 -77.6875 31.921875 -75.441406 31.921875 -72.515625 C 31.921875 -69.296875 33.4375 -66.785156 36.46875 -64.984375 C 39.5 -63.191406 44.226562 -61.253906 50.65625 -59.171875 C 57.09375 -56.992188 62.320312 -54.910156 66.34375 -52.921875 C 70.363281 -50.941406 73.835938 -48.054688 76.765625 -44.265625 C 79.703125 -40.484375 81.171875 -35.613281 81.171875 -29.65625 C 81.171875 -23.976562 79.726562 -18.820312 76.84375 -14.1875 C 73.957031 -9.550781 69.769531 -5.859375 64.28125 -3.109375 C 58.789062 -0.367188 52.3125 1 44.84375 1 Z M 44.84375 1 "/></g></g></g><g fill="#1a1a1a" fill-opacity="1"><g transform="translate(573.755796, 149.503226)"><g/></g></g><g fill="#1a1a1a" fill-opacity="1"><g transform="translate(603.838637, 149.503226)"><g><path d="M 74.921875 -68.109375 C 73.128906 -71.421875 70.550781 -73.953125 67.1875 -75.703125 C 63.832031 -77.453125 59.882812 -78.328125 55.34375 -78.328125 C 47.488281 -78.328125 41.195312 -75.75 36.46875 -70.59375 C 31.738281 -65.4375 29.375 -58.554688 29.375 -49.953125 C 29.375 -40.773438 31.859375 -33.609375 36.828125 -28.453125 C 41.796875 -23.296875 48.628906 -20.71875 57.328125 -20.71875 C 63.285156 -20.71875 68.320312 -22.226562 72.4375 -25.25 C 76.550781 -28.28125 79.554688 -32.632812 81.453125 -38.3125 L 50.65625 -38.3125 L 50.65625 -56.1875 L 103.453125 -56.1875 L 103.453125 -33.625 C 101.648438 -27.570312 98.597656 -21.941406 94.296875 -16.734375 C 89.992188 -11.535156 84.53125 -7.328125 77.90625 -4.109375 C 71.28125 -0.898438 63.804688 0.703125 55.484375 0.703125 C 45.648438 0.703125 36.875 -1.445312 29.15625 -5.75 C 21.445312 -10.050781 15.441406 -16.03125 11.140625 -23.6875 C 6.835938 -31.351562 4.6875 -40.109375 4.6875 -49.953125 C 4.6875 -59.785156 6.835938 -68.554688 11.140625 -76.265625 C 15.441406 -83.984375 21.421875 -89.992188 29.078125 -94.296875 C 36.742188 -98.597656 45.5 -100.75 55.34375 -100.75 C 67.257812 -100.75 77.304688 -97.863281 85.484375 -92.09375 C 93.671875 -86.320312 99.09375 -78.328125 101.75 -68.109375 Z M 74.921875 -68.109375 "/></g></g></g><g fill="#1a1a1a" fill-opacity="1"><g transform="translate(711.966559, 149.503226)"><g><path d="M 59.59375 0 L 38.875 -37.609375 L 33.0625 -37.609375 L 33.0625 0 L 8.796875 0 L 8.796875 -99.625 L 49.53125 -99.625 C 57.375 -99.625 64.0625 -98.25 69.59375 -95.5 C 75.132812 -92.757812 79.273438 -89 82.015625 -84.21875 C 84.765625 -79.445312 86.140625 -74.125 86.140625 -68.25 C 86.140625 -61.632812 84.269531 -55.722656 80.53125 -50.515625 C 76.789062 -45.316406 71.28125 -41.628906 64 -39.453125 L 86.984375 0 Z M 33.0625 -54.78125 L 48.109375 -54.78125 C 52.554688 -54.78125 55.890625 -55.863281 58.109375 -58.03125 C 60.335938 -60.207031 61.453125 -63.285156 61.453125 -67.265625 C 61.453125 -71.046875 60.335938 -74.023438 58.109375 -76.203125 C 55.890625 -78.378906 52.554688 -79.46875 48.109375 -79.46875 L 33.0625 -79.46875 Z M 33.0625 -54.78125 "/></g></g></g><g fill="#1a1a1a" fill-opacity="1"><g transform="translate(804.485443, 149.503226)"><g><path d="M 70.8125 -17.59375 L 33.625 -17.59375 L 27.671875 0 L 2.265625 0 L 38.3125 -99.625 L 66.40625 -99.625 L 102.453125 0 L 76.765625 0 Z M 64.5625 -36.328125 L 52.21875 -72.796875 L 40.015625 -36.328125 Z M 64.5625 -36.328125 "/></g></g></g><g fill="#1a1a1a" fill-opacity="1"><g transform="translate(909.065841, 149.503226)"><g><path d="M 84.71875 -67.546875 C 84.71875 -61.773438 83.390625 -56.5 80.734375 -51.71875 C 78.085938 -46.945312 74.019531 -43.09375 68.53125 -40.15625 C 63.050781 -37.226562 56.242188 -35.765625 48.109375 -35.765625 L 33.0625 -35.765625 L 33.0625 0 L 8.796875 0 L 8.796875 -99.625 L 48.109375 -99.625 C 56.054688 -99.625 62.769531 -98.25 68.25 -95.5 C 73.738281 -92.757812 77.851562 -88.972656 80.59375 -84.140625 C 83.34375 -79.316406 84.71875 -73.785156 84.71875 -67.546875 Z M 46.265625 -55.0625 C 50.898438 -55.0625 54.351562 -56.148438 56.625 -58.328125 C 58.894531 -60.503906 60.03125 -63.578125 60.03125 -67.546875 C 60.03125 -71.515625 58.894531 -74.585938 56.625 -76.765625 C 54.351562 -78.941406 50.898438 -80.03125 46.265625 -80.03125 L 33.0625 -80.03125 L 33.0625 -55.0625 Z M 46.265625 -55.0625 "/></g></g></g><g fill="#1a1a1a" fill-opacity="1"><g transform="translate(997.611492, 149.503226)"><g><path d="M 95.078125 -99.625 L 95.078125 0 L 70.8125 0 L 70.8125 -41.015625 L 33.0625 -41.015625 L 33.0625 0 L 8.796875 0 L 8.796875 -99.625 L 33.0625 -99.625 L 33.0625 -60.59375 L 70.8125 -60.59375 L 70.8125 -99.625 Z M 95.078125 -99.625 "/></g></g></g><g fill="#1a1a1a" fill-opacity="1"><g transform="translate(1101.340548, 149.503226)"><g><path d="M 33.0625 -99.625 L 33.0625 0 L 8.796875 0 L 8.796875 -99.625 Z M 33.0625 -99.625 "/></g></g></g><g fill="#1a1a1a" fill-opacity="1"><g transform="translate(1143.201085, 149.503226)"><g><path d="M 4.6875 -49.953125 C 4.6875 -59.785156 6.8125 -68.554688 11.0625 -76.265625 C 15.320312 -83.984375 21.257812 -89.992188 28.875 -94.296875 C 36.488281 -98.597656 45.125 -100.75 54.78125 -100.75 C 66.601562 -100.75 76.722656 -97.625 85.140625 -91.375 C 93.554688 -85.132812 99.1875 -76.625 102.03125 -65.84375 L 75.359375 -65.84375 C 73.367188 -70.007812 70.550781 -73.175781 66.90625 -75.34375 C 63.269531 -77.519531 59.128906 -78.609375 54.484375 -78.609375 C 47.015625 -78.609375 40.960938 -76.003906 36.328125 -70.796875 C 31.691406 -65.597656 29.375 -58.648438 29.375 -49.953125 C 29.375 -41.242188 31.691406 -34.285156 36.328125 -29.078125 C 40.960938 -23.878906 47.015625 -21.28125 54.484375 -21.28125 C 59.128906 -21.28125 63.269531 -22.367188 66.90625 -24.546875 C 70.550781 -26.722656 73.367188 -29.894531 75.359375 -34.0625 L 102.03125 -34.0625 C 99.1875 -23.269531 93.554688 -14.773438 85.140625 -8.578125 C 76.722656 -2.390625 66.601562 0.703125 54.78125 0.703125 C 45.125 0.703125 36.488281 -1.445312 28.875 -5.75 C 21.257812 -10.050781 15.320312 -16.03125 11.0625 -23.6875 C 6.8125 -31.351562 4.6875 -40.109375 4.6875 -49.953125 Z M 4.6875 -49.953125 "/></g></g></g><g fill="#1a1a1a" fill-opacity="1"><g transform="translate(1251.328971, 149.503226)"><g><path d="M 44.84375 1 C 37.5625 1 31.035156 -0.179688 25.265625 -2.546875 C 19.492188 -4.921875 14.878906 -8.425781 11.421875 -13.0625 C 7.972656 -17.695312 6.148438 -23.273438 5.953125 -29.796875 L 31.78125 -29.796875 C 32.164062 -26.109375 33.441406 -23.296875 35.609375 -21.359375 C 37.785156 -19.421875 40.628906 -18.453125 44.140625 -18.453125 C 47.734375 -18.453125 50.566406 -19.28125 52.640625 -20.9375 C 54.722656 -22.59375 55.765625 -24.882812 55.765625 -27.8125 C 55.765625 -30.269531 54.9375 -32.300781 53.28125 -33.90625 C 51.625 -35.519531 49.585938 -36.847656 47.171875 -37.890625 C 44.765625 -38.929688 41.335938 -40.113281 36.890625 -41.4375 C 30.460938 -43.425781 25.210938 -45.410156 21.140625 -47.390625 C 17.078125 -49.378906 13.578125 -52.3125 10.640625 -56.1875 C 7.710938 -60.070312 6.25 -65.132812 6.25 -71.375 C 6.25 -80.644531 9.601562 -87.90625 16.3125 -93.15625 C 23.03125 -98.40625 31.785156 -101.03125 42.578125 -101.03125 C 53.546875 -101.03125 62.390625 -98.40625 69.109375 -93.15625 C 75.828125 -87.90625 79.421875 -80.597656 79.890625 -71.234375 L 53.640625 -71.234375 C 53.453125 -74.453125 52.269531 -76.984375 50.09375 -78.828125 C 47.914062 -80.671875 45.125 -81.59375 41.71875 -81.59375 C 38.789062 -81.59375 36.425781 -80.8125 34.625 -79.25 C 32.820312 -77.6875 31.921875 -75.441406 31.921875 -72.515625 C 31.921875 -69.296875 33.4375 -66.785156 36.46875 -64.984375 C 39.5 -63.191406 44.226562 -61.253906 50.65625 -59.171875 C 57.09375 -56.992188 62.320312 -54.910156 66.34375 -52.921875 C 70.363281 -50.941406 73.835938 -48.054688 76.765625 -44.265625 C 79.703125 -40.484375 81.171875 -35.613281 81.171875 -29.65625 C 81.171875 -23.976562 79.726562 -18.820312 76.84375 -14.1875 C 73.957031 -9.550781 69.769531 -5.859375 64.28125 -3.109375 C 58.789062 -0.367188 52.3125 1 44.84375 1 Z M 44.84375 1 "/></g></g></g><g fill="#1a1a1a" fill-opacity="1"><g transform="translate(1338.604769, 149.503226)"><g/></g></g></g></g><g transform="matrix(1, 0, 0, 1, 78, 752)"><g clip-path="url(#a7079f0082)"><g fill="#1a1a1a" fill-opacity="1"><g transform="translate(1.046877, 120.818531)"><g><path d="M 6.203125 -31.28125 C 6.203125 -37.71875 7.484375 -43.347656 10.046875 -48.171875 C 12.617188 -53.003906 16.1875 -56.722656 20.75 -59.328125 C 25.3125 -61.929688 30.503906 -63.234375 36.328125 -63.234375 C 42.691406 -63.234375 48.210938 -61.644531 52.890625 -58.46875 C 57.566406 -55.289062 60.863281 -51.171875 62.78125 -46.109375 L 62.78125 -85.09375 L 67.953125 -85.09375 L 67.953125 0 L 62.78125 0 L 62.78125 -16.5625 C 60.9375 -11.425781 57.710938 -7.226562 53.109375 -3.96875 C 48.515625 -0.707031 42.921875 0.921875 36.328125 0.921875 C 30.503906 0.921875 25.3125 -0.398438 20.75 -3.046875 C 16.1875 -5.691406 12.617188 -9.445312 10.046875 -14.3125 C 7.484375 -19.175781 6.203125 -24.832031 6.203125 -31.28125 Z M 62.78125 -31.28125 C 62.78125 -36.71875 61.648438 -41.523438 59.390625 -45.703125 C 57.128906 -49.878906 54.039062 -53.097656 50.125 -55.359375 C 46.21875 -57.617188 41.851562 -58.75 37.03125 -58.75 C 31.96875 -58.75 27.519531 -57.65625 23.6875 -55.46875 C 19.851562 -53.289062 16.863281 -50.128906 14.71875 -45.984375 C 12.570312 -41.847656 11.5 -36.945312 11.5 -31.28125 C 11.5 -25.601562 12.570312 -20.691406 14.71875 -16.546875 C 16.863281 -12.410156 19.867188 -9.226562 23.734375 -7 C 27.609375 -4.78125 32.039062 -3.671875 37.03125 -3.671875 C 41.851562 -3.671875 46.238281 -4.800781 50.1875 -7.0625 C 54.132812 -9.332031 57.21875 -12.554688 59.4375 -16.734375 C 61.664062 -20.910156 62.78125 -25.757812 62.78125 -31.28125 Z M 62.78125 -31.28125 "/></g></g></g><g fill="#1a1a1a" fill-opacity="1"><g transform="translate(78.428086, 120.818531)"><g><path d="M 65.65625 -35.421875 C 65.65625 -32.660156 65.578125 -30.585938 65.421875 -29.203125 L 11.5 -29.203125 C 11.65625 -23.609375 12.878906 -18.894531 15.171875 -15.0625 C 17.472656 -11.226562 20.5 -8.351562 24.25 -6.4375 C 28.007812 -4.519531 32.113281 -3.5625 36.5625 -3.5625 C 42.695312 -3.5625 47.832031 -5.070312 51.96875 -8.09375 C 56.113281 -11.125 58.722656 -15.25 59.796875 -20.46875 L 65.203125 -20.46875 C 63.972656 -14.101562 60.828125 -8.945312 55.765625 -5 C 50.703125 -1.050781 44.300781 0.921875 36.5625 0.921875 C 30.738281 0.921875 25.523438 -0.378906 20.921875 -2.984375 C 16.328125 -5.597656 12.722656 -9.335938 10.109375 -14.203125 C 7.503906 -19.066406 6.203125 -24.757812 6.203125 -31.28125 C 6.203125 -37.789062 7.484375 -43.457031 10.046875 -48.28125 C 12.617188 -53.113281 16.207031 -56.8125 20.8125 -59.375 C 25.414062 -61.945312 30.664062 -63.234375 36.5625 -63.234375 C 42.539062 -63.234375 47.734375 -61.945312 52.140625 -59.375 C 56.546875 -56.8125 59.898438 -53.40625 62.203125 -49.15625 C 64.503906 -44.90625 65.65625 -40.328125 65.65625 -35.421875 Z M 60.484375 -33.453125 C 60.710938 -38.972656 59.734375 -43.648438 57.546875 -47.484375 C 55.359375 -51.316406 52.382812 -54.171875 48.625 -56.046875 C 44.875 -57.929688 40.816406 -58.875 36.453125 -58.875 C 32.078125 -58.875 28.03125 -57.929688 24.3125 -56.046875 C 20.601562 -54.171875 17.578125 -51.316406 15.234375 -47.484375 C 12.898438 -43.648438 11.65625 -38.972656 11.5 -33.453125 Z M 60.484375 -33.453125 "/></g></g></g><g fill="#1a1a1a" fill-opacity="1"><g transform="translate(150.29027, 120.818531)"><g><path d="M 30.234375 0.921875 C 23.265625 0.921875 17.570312 -0.609375 13.15625 -3.671875 C 8.75 -6.742188 6.28125 -11.113281 5.75 -16.78125 L 11.03125 -16.78125 C 11.414062 -12.71875 13.273438 -9.5 16.609375 -7.125 C 19.941406 -4.75 24.484375 -3.5625 30.234375 -3.5625 C 34.992188 -3.5625 38.769531 -4.769531 41.5625 -7.1875 C 44.363281 -9.601562 45.765625 -12.570312 45.765625 -16.09375 C 45.765625 -18.550781 45.015625 -20.5625 43.515625 -22.125 C 42.023438 -23.695312 40.164062 -24.90625 37.9375 -25.75 C 35.71875 -26.59375 32.691406 -27.515625 28.859375 -28.515625 C 24.265625 -29.742188 20.546875 -30.953125 17.703125 -32.140625 C 14.867188 -33.328125 12.453125 -35.109375 10.453125 -37.484375 C 8.460938 -39.859375 7.46875 -43.039062 7.46875 -47.03125 C 7.46875 -49.9375 8.347656 -52.632812 10.109375 -55.125 C 11.878906 -57.625 14.332031 -59.597656 17.46875 -61.046875 C 20.613281 -62.503906 24.179688 -63.234375 28.171875 -63.234375 C 34.679688 -63.234375 39.945312 -61.601562 43.96875 -58.34375 C 48 -55.09375 50.171875 -50.59375 50.484375 -44.84375 L 45.296875 -44.84375 C 45.066406 -48.976562 43.457031 -52.347656 40.46875 -54.953125 C 37.476562 -57.566406 33.34375 -58.875 28.0625 -58.875 C 23.613281 -58.875 19.929688 -57.722656 17.015625 -55.421875 C 14.097656 -53.117188 12.640625 -50.320312 12.640625 -47.03125 C 12.640625 -44.113281 13.460938 -41.753906 15.109375 -39.953125 C 16.765625 -38.148438 18.800781 -36.769531 21.21875 -35.8125 C 23.632812 -34.851562 26.832031 -33.835938 30.8125 -32.765625 C 35.1875 -31.617188 38.691406 -30.488281 41.328125 -29.375 C 43.972656 -28.269531 46.21875 -26.660156 48.0625 -24.546875 C 49.90625 -22.441406 50.828125 -19.625 50.828125 -16.09375 C 50.828125 -12.875 49.941406 -9.960938 48.171875 -7.359375 C 46.410156 -4.753906 43.957031 -2.722656 40.8125 -1.265625 C 37.675781 0.191406 34.148438 0.921875 30.234375 0.921875 Z M 30.234375 0.921875 "/></g></g></g><g fill="#1a1a1a" fill-opacity="1"><g transform="translate(207.435079, 120.818531)"><g><path d="M 12.078125 -76.34375 C 10.847656 -76.34375 9.8125 -76.742188 8.96875 -77.546875 C 8.125 -78.359375 7.703125 -79.453125 7.703125 -80.828125 C 7.703125 -82.128906 8.125 -83.203125 8.96875 -84.046875 C 9.8125 -84.890625 10.847656 -85.3125 12.078125 -85.3125 C 13.296875 -85.3125 14.328125 -84.890625 15.171875 -84.046875 C 16.015625 -83.203125 16.4375 -82.128906 16.4375 -80.828125 C 16.4375 -79.453125 16.015625 -78.359375 15.171875 -77.546875 C 14.328125 -76.742188 13.296875 -76.34375 12.078125 -76.34375 Z M 14.609375 -62.4375 L 14.609375 0 L 9.421875 0 L 9.421875 -62.4375 Z M 14.609375 -62.4375 "/></g></g></g><g fill="#1a1a1a" fill-opacity="1"><g transform="translate(231.580779, 120.818531)"><g><path d="M 36.328125 -63.234375 C 42.921875 -63.234375 48.515625 -61.644531 53.109375 -58.46875 C 57.710938 -55.289062 60.9375 -51.207031 62.78125 -46.21875 L 62.78125 -62.4375 L 67.953125 -62.4375 L 67.953125 1.953125 C 67.953125 7.703125 66.6875 12.742188 64.15625 17.078125 C 61.625 21.410156 58.210938 24.742188 53.921875 27.078125 C 49.628906 29.410156 44.835938 30.578125 39.546875 30.578125 C 31.734375 30.578125 25.257812 28.695312 20.125 24.9375 C 14.988281 21.1875 11.613281 16.132812 10 9.78125 L 15.171875 9.78125 C 16.710938 14.757812 19.585938 18.722656 23.796875 21.671875 C 28.015625 24.617188 33.265625 26.09375 39.546875 26.09375 C 43.921875 26.09375 47.867188 25.113281 51.390625 23.15625 C 54.921875 21.207031 57.703125 18.410156 59.734375 14.765625 C 61.765625 11.128906 62.78125 6.859375 62.78125 1.953125 L 62.78125 -16.328125 C 60.9375 -11.347656 57.695312 -7.226562 53.0625 -3.96875 C 48.425781 -0.707031 42.847656 0.921875 36.328125 0.921875 C 30.503906 0.921875 25.3125 -0.398438 20.75 -3.046875 C 16.1875 -5.691406 12.617188 -9.445312 10.046875 -14.3125 C 7.484375 -19.175781 6.203125 -24.832031 6.203125 -31.28125 C 6.203125 -37.71875 7.484375 -43.347656 10.046875 -48.171875 C 12.617188 -53.003906 16.1875 -56.722656 20.75 -59.328125 C 25.3125 -61.929688 30.503906 -63.234375 36.328125 -63.234375 Z M 62.78125 -31.28125 C 62.78125 -36.71875 61.648438 -41.523438 59.390625 -45.703125 C 57.128906 -49.878906 54.039062 -53.097656 50.125 -55.359375 C 46.21875 -57.617188 41.851562 -58.75 37.03125 -58.75 C 31.96875 -58.75 27.519531 -57.65625 23.6875 -55.46875 C 19.851562 -53.289062 16.863281 -50.128906 14.71875 -45.984375 C 12.570312 -41.847656 11.5 -36.945312 11.5 -31.28125 C 11.5 -25.601562 12.570312 -20.691406 14.71875 -16.546875 C 16.863281 -12.410156 19.867188 -9.226562 23.734375 -7 C 27.609375 -4.78125 32.039062 -3.671875 37.03125 -3.671875 C 41.851562 -3.671875 46.238281 -4.800781 50.1875 -7.0625 C 54.132812 -9.332031 57.21875 -12.554688 59.4375 -16.734375 C 61.664062 -20.910156 62.78125 -25.757812 62.78125 -31.28125 Z M 62.78125 -31.28125 "/></g></g></g><g fill="#1a1a1a" fill-opacity="1"><g transform="translate(308.961971, 120.818531)"><g><path d="M 37.59375 -63.703125 C 45.03125 -63.703125 51.085938 -61.421875 55.765625 -56.859375 C 60.441406 -52.296875 62.78125 -45.53125 62.78125 -36.5625 L 62.78125 0 L 57.71875 0 L 57.71875 -36.21875 C 57.71875 -43.65625 55.835938 -49.347656 52.078125 -53.296875 C 48.328125 -57.242188 43.234375 -59.21875 36.796875 -59.21875 C 30.046875 -59.21875 24.660156 -57.070312 20.640625 -52.78125 C 16.617188 -48.488281 14.609375 -42.125 14.609375 -33.6875 L 14.609375 0 L 9.421875 0 L 9.421875 -62.4375 L 14.609375 -62.4375 L 14.609375 -49.21875 C 16.367188 -53.894531 19.296875 -57.476562 23.390625 -59.96875 C 27.492188 -62.457031 32.226562 -63.703125 37.59375 -63.703125 Z M 37.59375 -63.703125 "/></g></g></g><g fill="#1a1a1a" fill-opacity="1"><g transform="translate(380.594217, 120.818531)"><g/></g></g><g fill="#1a1a1a" fill-opacity="1"><g transform="translate(413.018444, 120.818531)"><g><path d="M 17.125 -57.953125 L 17.125 -16.671875 C 17.125 -12.078125 17.96875 -8.914062 19.65625 -7.1875 C 21.34375 -5.457031 24.332031 -4.59375 28.625 -4.59375 L 35.640625 -4.59375 L 35.640625 0 L 27.828125 0 C 22.378906 0 18.367188 -1.28125 15.796875 -3.84375 C 13.234375 -6.414062 11.953125 -10.691406 11.953125 -16.671875 L 11.953125 -57.953125 L 2.53125 -57.953125 L 2.53125 -62.4375 L 11.953125 -62.4375 L 11.953125 -78.296875 L 17.125 -78.296875 L 17.125 -62.4375 L 35.640625 -62.4375 L 35.640625 -57.953125 Z M 17.125 -57.953125 "/></g></g></g><g fill="#1a1a1a" fill-opacity="1"><g transform="translate(452.916314, 120.818531)"><g><path d="M 37.71875 -63.703125 C 45.070312 -63.703125 51.085938 -61.421875 55.765625 -56.859375 C 60.441406 -52.296875 62.78125 -45.53125 62.78125 -36.5625 L 62.78125 0 L 57.71875 0 L 57.71875 -36.21875 C 57.71875 -43.65625 55.835938 -49.347656 52.078125 -53.296875 C 48.328125 -57.242188 43.234375 -59.21875 36.796875 -59.21875 C 30.046875 -59.21875 24.660156 -57.070312 20.640625 -52.78125 C 16.617188 -48.488281 14.609375 -42.125 14.609375 -33.6875 L 14.609375 0 L 9.421875 0 L 9.421875 -85.09375 L 14.609375 -85.09375 L 14.609375 -49.21875 C 16.367188 -53.894531 19.316406 -57.476562 23.453125 -59.96875 C 27.597656 -62.457031 32.351562 -63.703125 37.71875 -63.703125 Z M 37.71875 -63.703125 "/></g></g></g><g fill="#1a1a1a" fill-opacity="1"><g transform="translate(524.548526, 120.818531)"><g><path d="M 6.203125 -31.28125 C 6.203125 -37.71875 7.484375 -43.347656 10.046875 -48.171875 C 12.617188 -53.003906 16.1875 -56.722656 20.75 -59.328125 C 25.3125 -61.929688 30.503906 -63.234375 36.328125 -63.234375 C 42.921875 -63.234375 48.515625 -61.625 53.109375 -58.40625 C 57.710938 -55.1875 60.9375 -51.085938 62.78125 -46.109375 L 62.78125 -62.4375 L 67.953125 -62.4375 L 67.953125 0 L 62.78125 0 L 62.78125 -16.4375 C 60.9375 -11.382812 57.695312 -7.226562 53.0625 -3.96875 C 48.425781 -0.707031 42.847656 0.921875 36.328125 0.921875 C 30.503906 0.921875 25.3125 -0.398438 20.75 -3.046875 C 16.1875 -5.691406 12.617188 -9.445312 10.046875 -14.3125 C 7.484375 -19.175781 6.203125 -24.832031 6.203125 -31.28125 Z M 62.78125 -31.28125 C 62.78125 -36.71875 61.648438 -41.523438 59.390625 -45.703125 C 57.128906 -49.878906 54.039062 -53.097656 50.125 -55.359375 C 46.21875 -57.617188 41.851562 -58.75 37.03125 -58.75 C 31.96875 -58.75 27.519531 -57.65625 23.6875 -55.46875 C 19.851562 -53.289062 16.863281 -50.128906 14.71875 -45.984375 C 12.570312 -41.847656 11.5 -36.945312 11.5 -31.28125 C 11.5 -25.601562 12.570312 -20.691406 14.71875 -16.546875 C 16.863281 -12.410156 19.867188 -9.226562 23.734375 -7 C 27.609375 -4.78125 32.039062 -3.671875 37.03125 -3.671875 C 41.851562 -3.671875 46.238281 -4.800781 50.1875 -7.0625 C 54.132812 -9.332031 57.21875 -12.554688 59.4375 -16.734375 C 61.664062 -20.910156 62.78125 -25.757812 62.78125 -31.28125 Z M 62.78125 -31.28125 "/></g></g></g><g fill="#1a1a1a" fill-opacity="1"><g transform="translate(601.929718, 120.818531)"><g><path d="M 17.125 -57.953125 L 17.125 -16.671875 C 17.125 -12.078125 17.96875 -8.914062 19.65625 -7.1875 C 21.34375 -5.457031 24.332031 -4.59375 28.625 -4.59375 L 35.640625 -4.59375 L 35.640625 0 L 27.828125 0 C 22.378906 0 18.367188 -1.28125 15.796875 -3.84375 C 13.234375 -6.414062 11.953125 -10.691406 11.953125 -16.671875 L 11.953125 -57.953125 L 2.53125 -57.953125 L 2.53125 -62.4375 L 11.953125 -62.4375 L 11.953125 -78.296875 L 17.125 -78.296875 L 17.125 -62.4375 L 35.640625 -62.4375 L 35.640625 -57.953125 Z M 17.125 -57.953125 "/></g></g></g><g fill="#1a1a1a" fill-opacity="1"><g transform="translate(641.827652, 120.818531)"><g/></g></g><g fill="#1a1a1a" fill-opacity="1"><g transform="translate(674.251847, 120.818531)"><g><path d="M 36.328125 -63.234375 C 42.921875 -63.234375 48.515625 -61.644531 53.109375 -58.46875 C 57.710938 -55.289062 60.9375 -51.207031 62.78125 -46.21875 L 62.78125 -62.4375 L 67.953125 -62.4375 L 67.953125 1.953125 C 67.953125 7.703125 66.6875 12.742188 64.15625 17.078125 C 61.625 21.410156 58.210938 24.742188 53.921875 27.078125 C 49.628906 29.410156 44.835938 30.578125 39.546875 30.578125 C 31.734375 30.578125 25.257812 28.695312 20.125 24.9375 C 14.988281 21.1875 11.613281 16.132812 10 9.78125 L 15.171875 9.78125 C 16.710938 14.757812 19.585938 18.722656 23.796875 21.671875 C 28.015625 24.617188 33.265625 26.09375 39.546875 26.09375 C 43.921875 26.09375 47.867188 25.113281 51.390625 23.15625 C 54.921875 21.207031 57.703125 18.410156 59.734375 14.765625 C 61.765625 11.128906 62.78125 6.859375 62.78125 1.953125 L 62.78125 -16.328125 C 60.9375 -11.347656 57.695312 -7.226562 53.0625 -3.96875 C 48.425781 -0.707031 42.847656 0.921875 36.328125 0.921875 C 30.503906 0.921875 25.3125 -0.398438 20.75 -3.046875 C 16.1875 -5.691406 12.617188 -9.445312 10.046875 -14.3125 C 7.484375 -19.175781 6.203125 -24.832031 6.203125 -31.28125 C 6.203125 -37.71875 7.484375 -43.347656 10.046875 -48.171875 C 12.617188 -53.003906 16.1875 -56.722656 20.75 -59.328125 C 25.3125 -61.929688 30.503906 -63.234375 36.328125 -63.234375 Z M 62.78125 -31.28125 C 62.78125 -36.71875 61.648438 -41.523438 59.390625 -45.703125 C 57.128906 -49.878906 54.039062 -53.097656 50.125 -55.359375 C 46.21875 -57.617188 41.851562 -58.75 37.03125 -58.75 C 31.96875 -58.75 27.519531 -57.65625 23.6875 -55.46875 C 19.851562 -53.289062 16.863281 -50.128906 14.71875 -45.984375 C 12.570312 -41.847656 11.5 -36.945312 11.5 -31.28125 C 11.5 -25.601562 12.570312 -20.691406 14.71875 -16.546875 C 16.863281 -12.410156 19.867188 -9.226562 23.734375 -7 C 27.609375 -4.78125 32.039062 -3.671875 37.03125 -3.671875 C 41.851562 -3.671875 46.238281 -4.800781 50.1875 -7.0625 C 54.132812 -9.332031 57.21875 -12.554688 59.4375 -16.734375 C 61.664062 -20.910156 62.78125 -25.757812 62.78125 -31.28125 Z M 62.78125 -31.28125 "/></g></g></g><g fill="#1a1a1a" fill-opacity="1"><g transform="translate(751.633039, 120.818531)"><g><path d="M 65.65625 -35.421875 C 65.65625 -32.660156 65.578125 -30.585938 65.421875 -29.203125 L 11.5 -29.203125 C 11.65625 -23.609375 12.878906 -18.894531 15.171875 -15.0625 C 17.472656 -11.226562 20.5 -8.351562 24.25 -6.4375 C 28.007812 -4.519531 32.113281 -3.5625 36.5625 -3.5625 C 42.695312 -3.5625 47.832031 -5.070312 51.96875 -8.09375 C 56.113281 -11.125 58.722656 -15.25 59.796875 -20.46875 L 65.203125 -20.46875 C 63.972656 -14.101562 60.828125 -8.945312 55.765625 -5 C 50.703125 -1.050781 44.300781 0.921875 36.5625 0.921875 C 30.738281 0.921875 25.523438 -0.378906 20.921875 -2.984375 C 16.328125 -5.597656 12.722656 -9.335938 10.109375 -14.203125 C 7.503906 -19.066406 6.203125 -24.757812 6.203125 -31.28125 C 6.203125 -37.789062 7.484375 -43.457031 10.046875 -48.28125 C 12.617188 -53.113281 16.207031 -56.8125 20.8125 -59.375 C 25.414062 -61.945312 30.664062 -63.234375 36.5625 -63.234375 C 42.539062 -63.234375 47.734375 -61.945312 52.140625 -59.375 C 56.546875 -56.8125 59.898438 -53.40625 62.203125 -49.15625 C 64.503906 -44.90625 65.65625 -40.328125 65.65625 -35.421875 Z M 60.484375 -33.453125 C 60.710938 -38.972656 59.734375 -43.648438 57.546875 -47.484375 C 55.359375 -51.316406 52.382812 -54.171875 48.625 -56.046875 C 44.875 -57.929688 40.816406 -58.875 36.453125 -58.875 C 32.078125 -58.875 28.03125 -57.929688 24.3125 -56.046875 C 20.601562 -54.171875 17.578125 -51.316406 15.234375 -47.484375 C 12.898438 -43.648438 11.65625 -38.972656 11.5 -33.453125 Z M 60.484375 -33.453125 "/></g></g></g><g fill="#1a1a1a" fill-opacity="1"><g transform="translate(823.495223, 120.818531)"><g><path d="M 17.125 -57.953125 L 17.125 -16.671875 C 17.125 -12.078125 17.96875 -8.914062 19.65625 -7.1875 C 21.34375 -5.457031 24.332031 -4.59375 28.625 -4.59375 L 35.640625 -4.59375 L 35.640625 0 L 27.828125 0 C 22.378906 0 18.367188 -1.28125 15.796875 -3.84375 C 13.234375 -6.414062 11.953125 -10.691406 11.953125 -16.671875 L 11.953125 -57.953125 L 2.53125 -57.953125 L 2.53125 -62.4375 L 11.953125 -62.4375 L 11.953125 -78.296875 L 17.125 -78.296875 L 17.125 -62.4375 L 35.640625 -62.4375 L 35.640625 -57.953125 Z M 17.125 -57.953125 "/></g></g></g><g fill="#1a1a1a" fill-opacity="1"><g transform="translate(863.393092, 120.818531)"><g/></g></g><g fill="#1a1a1a" fill-opacity="1"><g transform="translate(895.817352, 120.818531)"><g><path d="M 37.59375 -63.703125 C 45.03125 -63.703125 51.085938 -61.421875 55.765625 -56.859375 C 60.441406 -52.296875 62.78125 -45.53125 62.78125 -36.5625 L 62.78125 0 L 57.71875 0 L 57.71875 -36.21875 C 57.71875 -43.65625 55.835938 -49.347656 52.078125 -53.296875 C 48.328125 -57.242188 43.234375 -59.21875 36.796875 -59.21875 C 30.046875 -59.21875 24.660156 -57.070312 20.640625 -52.78125 C 16.617188 -48.488281 14.609375 -42.125 14.609375 -33.6875 L 14.609375 0 L 9.421875 0 L 9.421875 -62.4375 L 14.609375 -62.4375 L 14.609375 -49.21875 C 16.367188 -53.894531 19.296875 -57.476562 23.390625 -59.96875 C 27.492188 -62.457031 32.226562 -63.703125 37.59375 -63.703125 Z M 37.59375 -63.703125 "/></g></g></g><g fill="#1a1a1a" fill-opacity="1"><g transform="translate(967.449564, 120.818531)"><g><path d="M 36.90625 0.921875 C 31.082031 0.921875 25.832031 -0.378906 21.15625 -2.984375 C 16.476562 -5.597656 12.816406 -9.335938 10.171875 -14.203125 C 7.523438 -19.066406 6.203125 -24.757812 6.203125 -31.28125 C 6.203125 -37.71875 7.546875 -43.367188 10.234375 -48.234375 C 12.921875 -53.097656 16.617188 -56.8125 21.328125 -59.375 C 26.046875 -61.945312 31.316406 -63.234375 37.140625 -63.234375 C 42.960938 -63.234375 48.210938 -61.945312 52.890625 -59.375 C 57.566406 -56.8125 61.226562 -53.113281 63.875 -48.28125 C 66.519531 -43.457031 67.84375 -37.789062 67.84375 -31.28125 C 67.84375 -24.757812 66.5 -19.066406 63.8125 -14.203125 C 61.132812 -9.335938 57.4375 -5.597656 52.71875 -2.984375 C 48.007812 -0.378906 42.738281 0.921875 36.90625 0.921875 Z M 36.90625 -3.671875 C 41.425781 -3.671875 45.660156 -4.6875 49.609375 -6.71875 C 53.554688 -8.757812 56.71875 -11.847656 59.09375 -15.984375 C 61.476562 -20.117188 62.671875 -25.21875 62.671875 -31.28125 C 62.671875 -37.257812 61.476562 -42.316406 59.09375 -46.453125 C 56.71875 -50.585938 53.578125 -53.671875 49.671875 -55.703125 C 45.765625 -57.734375 41.550781 -58.75 37.03125 -58.75 C 32.5 -58.75 28.296875 -57.734375 24.421875 -55.703125 C 20.554688 -53.671875 17.4375 -50.585938 15.0625 -46.453125 C 12.6875 -42.316406 11.5 -37.257812 11.5 -31.28125 C 11.5 -25.21875 12.664062 -20.117188 15 -15.984375 C 17.34375 -11.847656 20.445312 -8.757812 24.3125 -6.71875 C 28.1875 -4.6875 32.382812 -3.671875 36.90625 -3.671875 Z M 36.90625 -3.671875 "/></g></g></g><g fill="#1a1a1a" fill-opacity="1"><g transform="translate(1041.61134, 120.818531)"><g><path d="M 17.125 -57.953125 L 17.125 -16.671875 C 17.125 -12.078125 17.96875 -8.914062 19.65625 -7.1875 C 21.34375 -5.457031 24.332031 -4.59375 28.625 -4.59375 L 35.640625 -4.59375 L 35.640625 0 L 27.828125 0 C 22.378906 0 18.367188 -1.28125 15.796875 -3.84375 C 13.234375 -6.414062 11.953125 -10.691406 11.953125 -16.671875 L 11.953125 -57.953125 L 2.53125 -57.953125 L 2.53125 -62.4375 L 11.953125 -62.4375 L 11.953125 -78.296875 L 17.125 -78.296875 L 17.125 -62.4375 L 35.640625 -62.4375 L 35.640625 -57.953125 Z M 17.125 -57.953125 "/></g></g></g><g fill="#1a1a1a" fill-opacity="1"><g transform="translate(1081.50921, 120.818531)"><g><path d="M 12.078125 -76.34375 C 10.847656 -76.34375 9.8125 -76.742188 8.96875 -77.546875 C 8.125 -78.359375 7.703125 -79.453125 7.703125 -80.828125 C 7.703125 -82.128906 8.125 -83.203125 8.96875 -84.046875 C 9.8125 -84.890625 10.847656 -85.3125 12.078125 -85.3125 C 13.296875 -85.3125 14.328125 -84.890625 15.171875 -84.046875 C 16.015625 -83.203125 16.4375 -82.128906 16.4375 -80.828125 C 16.4375 -79.453125 16.015625 -78.359375 15.171875 -77.546875 C 14.328125 -76.742188 13.296875 -76.34375 12.078125 -76.34375 Z M 14.609375 -62.4375 L 14.609375 0 L 9.421875 0 L 9.421875 -62.4375 Z M 14.609375 -62.4375 "/></g></g></g><g fill="#1a1a1a" fill-opacity="1"><g transform="translate(1105.654925, 120.818531)"><g><path d="M 6.203125 -31.28125 C 6.203125 -37.789062 7.484375 -43.457031 10.046875 -48.28125 C 12.617188 -53.113281 16.1875 -56.8125 20.75 -59.375 C 25.3125 -61.945312 30.546875 -63.234375 36.453125 -63.234375 C 44.265625 -63.234375 50.679688 -61.28125 55.703125 -57.375 C 60.722656 -53.46875 63.847656 -48.21875 65.078125 -41.625 L 59.671875 -41.625 C 58.679688 -46.988281 56.097656 -51.203125 51.921875 -54.265625 C 47.742188 -57.335938 42.585938 -58.875 36.453125 -58.875 C 31.847656 -58.875 27.664062 -57.859375 23.90625 -55.828125 C 20.15625 -53.796875 17.148438 -50.691406 14.890625 -46.515625 C 12.628906 -42.335938 11.5 -37.257812 11.5 -31.28125 C 11.5 -25.21875 12.628906 -20.117188 14.890625 -15.984375 C 17.148438 -11.847656 20.15625 -8.742188 23.90625 -6.671875 C 27.664062 -4.597656 31.847656 -3.5625 36.453125 -3.5625 C 42.585938 -3.5625 47.742188 -5.09375 51.921875 -8.15625 C 56.097656 -11.226562 58.679688 -15.445312 59.671875 -20.8125 L 65.078125 -20.8125 C 63.847656 -14.289062 60.703125 -9.035156 55.640625 -5.046875 C 50.585938 -1.066406 44.191406 0.921875 36.453125 0.921875 C 30.546875 0.921875 25.3125 -0.378906 20.75 -2.984375 C 16.1875 -5.597656 12.617188 -9.335938 10.046875 -14.203125 C 7.484375 -19.066406 6.203125 -24.757812 6.203125 -31.28125 Z M 6.203125 -31.28125 "/></g></g></g><g fill="#1a1a1a" fill-opacity="1"><g transform="translate(1177.057231, 120.818531)"><g><path d="M 65.65625 -35.421875 C 65.65625 -32.660156 65.578125 -30.585938 65.421875 -29.203125 L 11.5 -29.203125 C 11.65625 -23.609375 12.878906 -18.894531 15.171875 -15.0625 C 17.472656 -11.226562 20.5 -8.351562 24.25 -6.4375 C 28.007812 -4.519531 32.113281 -3.5625 36.5625 -3.5625 C 42.695312 -3.5625 47.832031 -5.070312 51.96875 -8.09375 C 56.113281 -11.125 58.722656 -15.25 59.796875 -20.46875 L 65.203125 -20.46875 C 63.972656 -14.101562 60.828125 -8.945312 55.765625 -5 C 50.703125 -1.050781 44.300781 0.921875 36.5625 0.921875 C 30.738281 0.921875 25.523438 -0.378906 20.921875 -2.984375 C 16.328125 -5.597656 12.722656 -9.335938 10.109375 -14.203125 C 7.503906 -19.066406 6.203125 -24.757812 6.203125 -31.28125 C 6.203125 -37.789062 7.484375 -43.457031 10.046875 -48.28125 C 12.617188 -53.113281 16.207031 -56.8125 20.8125 -59.375 C 25.414062 -61.945312 30.664062 -63.234375 36.5625 -63.234375 C 42.539062 -63.234375 47.734375 -61.945312 52.140625 -59.375 C 56.546875 -56.8125 59.898438 -53.40625 62.203125 -49.15625 C 64.503906 -44.90625 65.65625 -40.328125 65.65625 -35.421875 Z M 60.484375 -33.453125 C 60.710938 -38.972656 59.734375 -43.648438 57.546875 -47.484375 C 55.359375 -51.316406 52.382812 -54.171875 48.625 -56.046875 C 44.875 -57.929688 40.816406 -58.875 36.453125 -58.875 C 32.078125 -58.875 28.03125 -57.929688 24.3125 -56.046875 C 20.601562 -54.171875 17.578125 -51.316406 15.234375 -47.484375 C 12.898438 -43.648438 11.65625 -38.972656 11.5 -33.453125 Z M 60.484375 -33.453125 "/></g></g></g><g fill="#1a1a1a" fill-opacity="1"><g transform="translate(1248.91935, 120.818531)"><g><path d="M 6.203125 -31.28125 C 6.203125 -37.71875 7.484375 -43.347656 10.046875 -48.171875 C 12.617188 -53.003906 16.1875 -56.722656 20.75 -59.328125 C 25.3125 -61.929688 30.503906 -63.234375 36.328125 -63.234375 C 42.691406 -63.234375 48.210938 -61.644531 52.890625 -58.46875 C 57.566406 -55.289062 60.863281 -51.171875 62.78125 -46.109375 L 62.78125 -85.09375 L 67.953125 -85.09375 L 67.953125 0 L 62.78125 0 L 62.78125 -16.5625 C 60.9375 -11.425781 57.710938 -7.226562 53.109375 -3.96875 C 48.515625 -0.707031 42.921875 0.921875 36.328125 0.921875 C 30.503906 0.921875 25.3125 -0.398438 20.75 -3.046875 C 16.1875 -5.691406 12.617188 -9.445312 10.046875 -14.3125 C 7.484375 -19.175781 6.203125 -24.832031 6.203125 -31.28125 Z M 62.78125 -31.28125 C 62.78125 -36.71875 61.648438 -41.523438 59.390625 -45.703125 C 57.128906 -49.878906 54.039062 -53.097656 50.125 -55.359375 C 46.21875 -57.617188 41.851562 -58.75 37.03125 -58.75 C 31.96875 -58.75 27.519531 -57.65625 23.6875 -55.46875 C 19.851562 -53.289062 16.863281 -50.128906 14.71875 -45.984375 C 12.570312 -41.847656 11.5 -36.945312 11.5 -31.28125 C 11.5 -25.601562 12.570312 -20.691406 14.71875 -16.546875 C 16.863281 -12.410156 19.867188 -9.226562 23.734375 -7 C 27.609375 -4.78125 32.039062 -3.671875 37.03125 -3.671875 C 41.851562 -3.671875 46.238281 -4.800781 50.1875 -7.0625 C 54.132812 -9.332031 57.21875 -12.554688 59.4375 -16.734375 C 61.664062 -20.910156 62.78125 -25.757812 62.78125 -31.28125 Z M 62.78125 -31.28125 "/></g></g></g></g></g></svg>